<?xml version="1.0" encoding="utf-8"?>
<!-- Generator: Adobe Illustrator 25.2.0, SVG Export Plug-In . SVG Version: 6.00 Build 0)  -->
<svg version="1.1" id="Layer_1" xmlns="http://www.w3.org/2000/svg" xmlns:xlink="http://www.w3.org/1999/xlink" x="0px" y="0px"
	 viewBox="0 0 196.3 42.5" enable-background="new 0 0 196.3 42.5" xml:space="preserve">
<g>
	<path fill="#fff" d="M135.8,6.2c-0.4-0.4-0.9-0.6-1.4-0.6c-0.6,0-1,0.2-1.4,0.6c-0.4,0.4-0.6,0.8-0.6,1.4v24.2
		c0,0.6,0.2,1,0.6,1.4c0.4,0.4,0.9,0.6,1.4,0.6c0.5,0,1-0.2,1.4-0.6c0.4-0.4,0.6-0.9,0.6-1.4V7.6C136.3,7.1,136.1,6.6,135.8,6.2"/>
	<path fill="#fff" d="M33.2,25.2c-0.2-1.9-0.9-3.5-2.3-4.9c-1.6-1.6-3.5-2.4-5.7-2.4l-2.6,0h-2.8c-1.1,0-2.1-0.4-2.9-1.2
		c-0.8-0.8-1.2-1.7-1.2-2.9v-0.2c0-1.1,0.4-2.1,1.2-2.9c0.8-0.8,1.7-1.2,2.9-1.2h4.1h3.3c0.6,0,1-0.2,1.4-0.6
		c0.4-0.4,0.6-0.9,0.6-1.4c0-0.5-0.2-1-0.6-1.4c-0.4-0.4-0.8-0.6-1.4-0.6h-3.3h-4.1c-2.2,0-4.1,0.8-5.7,2.4
		c-1.6,1.6-2.4,3.5-2.4,5.7v0.2c0,2.2,0.8,4.1,2.4,5.7c1.6,1.6,3.5,2.4,5.7,2.4h2.2l3.2,0c1.1,0,2.1,0.4,2.9,1.2
		c0.7,0.7,1.1,1.5,1.2,2.4v0.3c0,1.1-0.4,2.1-1.2,2.9c-0.8,0.8-1.7,1.2-2.9,1.2h-6.6h-4H8.9c-1.1,0-2.1-0.4-2.9-1.2
		c-0.8-0.8-1.2-1.8-1.2-2.9v-2.8h0v-8.3c0-0.6-0.2-1-0.6-1.4c-0.4-0.4-0.9-0.6-1.4-0.6c-0.5,0-1,0.2-1.4,0.6
		c-0.4,0.4-0.6,0.8-0.6,1.4v8.3v0.6v2.2c0,2.2,0.8,4.1,2.4,5.7c1.6,1.6,3.5,2.4,5.7,2.4h5.7h4h6.6c2.2,0,4.1-0.8,5.7-2.4
		c1.6-1.6,2.4-3.5,2.4-5.7c0,0,0-0.2,0-0.4L33.2,25.2z"/>
	<path fill="#fff" d="M126.4,5.7c-0.6,0-1,0.2-1.4,0.6c-0.4,0.4-0.6,0.8-0.6,1.4v5.2v12.9c0,1.1-0.4,2.1-1.2,2.9
		c-0.8,0.8-1.7,1.2-2.9,1.2h-4.6h-1.1c0.7-1.2,1.1-2.6,1.1-4.1v-2.2V23v-8.3c0-0.6-0.2-1-0.6-1.4c-0.4-0.4-0.9-0.6-1.4-0.6
		c-0.6,0-1,0.2-1.4,0.6c-0.4,0.4-0.6,0.8-0.6,1.4V23h0v2.8c0,1.1-0.4,2.1-1.2,2.9c-0.8,0.8-1.7,1.2-2.9,1.2H106V17.2
		c0-0.6-0.2-1-0.6-1.4c-0.4-0.4-0.9-0.6-1.4-0.6c-0.6,0-1,0.2-1.4,0.6c-0.4,0.4-0.6,0.8-0.6,1.4v12.7h-5.8V19.2c0-0.6-0.2-1-0.6-1.4
		c-0.4-0.4-0.9-0.6-1.4-0.6c-0.6,0-1,0.2-1.4,0.6c-0.4,0.4-0.6,0.8-0.6,1.4v10.7h-9.1H81c0.7-1.2,1.1-2.6,1.1-4.1v-2.2V23v-8.3
		c0-0.6-0.2-1-0.6-1.4c-0.4-0.4-0.9-0.6-1.4-0.6c-0.6,0-1,0.2-1.4,0.6c-0.4,0.4-0.6,0.8-0.6,1.4V23v2.8c0,1.1-0.4,2.1-1.2,2.9
		c-0.8,0.8-1.7,1.2-2.9,1.2h-2.7V17.2c0-0.6-0.2-1-0.6-1.4c-0.4-0.4-0.9-0.6-1.4-0.6c-0.6,0-1,0.2-1.4,0.6c-0.4,0.4-0.6,0.8-0.6,1.4
		v12.7h-9.5v-5.9c0-2.2-0.8-4.1-2.4-5.7c-1.6-1.6-3.5-2.4-5.7-2.4h-2.2h-0.6h-8.3c-0.6,0-1,0.2-1.4,0.6c-0.4,0.4-0.6,0.9-0.6,1.4
		c0,0.6,0.2,1,0.6,1.4c0.4,0.4,0.8,0.6,1.4,0.6h8.3h2.8c1.1,0,2.1,0.4,2.9,1.2c0.8,0.8,1.2,1.7,1.2,2.9v5.9H41.8h-3
		c-0.6,0-1,0.2-1.4,0.6c-0.4,0.4-0.6,0.9-0.6,1.4c0,0.6,0.2,1,0.6,1.4c0.4,0.4,0.8,0.6,1.4,0.6h3H42H74c1.6,0,3.1-0.4,4.3-1.3
		c0.1,0.2,0.2,0.5,0.4,0.7c0.4,0.4,0.8,0.6,1.4,0.6h3h0.2h24.3c1.7,0,3.2-0.5,4.5-1.4c0.1,0.3,0.3,0.6,0.5,0.8
		c0.4,0.4,0.8,0.6,1.4,0.6h1.6h0.1h4.5c2.2,0,4.1-0.8,5.7-2.4c1.6-1.6,2.4-3.5,2.4-5.7v-5.2v-7.8V7.6c0-0.6-0.2-1-0.6-1.4
		C127.4,5.9,126.9,5.7,126.4,5.7"/>
	<path fill="#fff" d="M74.2,10.6c1.4,0,2.5-1.1,2.5-2.5s-1.1-2.5-2.5-2.5c-1.4,0-2.5,1.1-2.5,2.5S72.9,10.6,74.2,10.6"/>
	<path fill="#fff" d="M65.4,37.6c-1.4,0-2.5,1.1-2.5,2.5c0,1.4,1.1,2.5,2.5,2.5c1.4,0,2.5-1.1,2.5-2.5
		C67.9,38.7,66.8,37.6,65.4,37.6"/>
	<path fill="#fff" d="M59.3,37.6c-1.4,0-2.5,1.1-2.5,2.5c0,1.4,1.1,2.5,2.5,2.5c1.4,0,2.5-1.1,2.5-2.5
		C61.8,38.7,60.7,37.6,59.3,37.6"/>
	<path fill="#fff" d="M20.1,37.6c-1.4,0-2.5,1.1-2.5,2.5c0,1.4,1.1,2.5,2.5,2.5c1.4,0,2.5-1.1,2.5-2.5
		C22.6,38.7,21.5,37.6,20.1,37.6"/>
	<path fill="#fff" d="M14,37.6c-1.4,0-2.5,1.1-2.5,2.5c0,1.4,1.1,2.5,2.5,2.5c1.4,0,2.5-1.1,2.5-2.5C16.4,38.7,15.3,37.6,14,37.6
		"/>
	<path fill="#fff" d="M193.7,3.3c0.5-0.1,0.9-0.3,0.9-1c0-0.7-0.4-1-1.3-1H192v3.6h0.6V3.4h0.6l1,1.5h0.6L193.7,3.3z M193.2,2.9
		h-0.6V1.8h0.7c0.4,0,0.8,0.1,0.8,0.5C194.1,2.9,193.6,2.9,193.2,2.9"/>
	<path fill="#fff" d="M193.2,0.1c-1.7,0-3.1,1.3-3.1,3c0,1.8,1.4,3.1,3.1,3.1c1.7,0,3.1-1.3,3.1-3.1
		C196.3,1.4,194.9,0.1,193.2,0.1 M193.2,5.7c-1.4,0-2.5-1.1-2.5-2.6c0-1.5,1.1-2.6,2.5-2.6c1.4,0,2.5,1.1,2.5,2.6
		C195.7,4.6,194.6,5.7,193.2,5.7"/>
	<path fill="#fff" d="M184.6,8.7c-1.5,0-3.1,0.4-4.5,1.1c-0.3,0.2-0.6,0.3-0.9,0.5c-0.6,0.4-1.1,0.8-1.6,1.2
		c-4.4,3.5-5.2,9.2-7.5,13.8c-0.1,0.2-0.2,0.5-0.4,0.7c-0.3,0.6-0.7,1.2-1.1,1.7c-0.4,0.5-0.9,1-1.3,1.4c-0.5,0.5-1.1,0.9-1.6,1.3
		c-0.6,0.4-1.2,0.8-1.9,1.1c-3.8,1.7-11.1,2-14.6,2c-1.1,0-2,0.9-2,1.9v2c0,0-0.1,2,1.9,2c1.7,0,11.2,0,13.6,0h0.1h0.3h0.2
		c7.8,0,23.2-2.7,23.3-19.7v0v-9.2C186.4,10.4,186.5,8.7,184.6,8.7"/>
	<path fill="#fff" d="M148.9,30.6c1.5,0,3.1-0.4,4.5-1.1c0.3-0.2,0.6-0.3,0.9-0.5c0.6-0.4,1.1-0.8,1.6-1.2
		c4.4-3.5,5.2-9.2,7.5-13.8c0.1-0.2,0.2-0.5,0.4-0.7c0.3-0.6,0.7-1.2,1.1-1.7c0.4-0.5,0.9-1,1.3-1.4c0.5-0.5,1.1-0.9,1.6-1.3
		c0.6-0.4,1.2-0.8,1.9-1.1c3.8-1.7,11.1-2,14.6-2c1.1,0,2-0.9,2-1.9V2c0,0,0.1-2-1.9-2h-13.6h-0.1h-0.3h-0.2
		c-7.8,0-23.2,2.7-23.3,19.7v0V29C147.1,29,147,30.6,148.9,30.6"/>
</g>
</svg>
